<?xml version="1.0" encoding="utf-8"?>
<!-- Generator: Adobe Illustrator 27.0.1, SVG Export Plug-In . SVG Version: 6.00 Build 0)  -->
<svg version="1.1" id="Layer_1" xmlns="http://www.w3.org/2000/svg" xmlns:xlink="http://www.w3.org/1999/xlink" x="0px" y="0px"
	 viewBox="0 0 348.415 61.035" style="enable-background:new 0 0 348.415 61.035;" xml:space="preserve">
<style type="text/css">
	.st0{fill:#FFFFFF;}
</style>
<g>
	<path class="st0" d="M41.63,47.996H16.047V31.171L2.909,33.665v11.62c0,5.121,0.954,8.604,2.862,10.455
		c1.905,1.854,5.58,2.78,11.018,2.78h23.994c5.414,0,9.087-0.926,11.015-2.78c1.928-1.851,2.893-5.334,2.893-10.455V2.515H41.63
		V47.996z"/>
	<path class="st0" d="M213.594,29.61c3.099-0.387,5.477-1.383,7.133-2.987c1.654-1.604,2.482-3.743,2.482-6.422v-6.804
		c0-3.786-0.989-6.547-2.975-8.28c-1.983-1.733-5.187-2.603-9.615-2.603H162.67v25.708l-35.384-0.014L112.567,2.515h-12.549
		L68.361,58.521H81.33l4.889-9.096l34.158-8.855l9.661,17.952h14.611l-12.092-21.109l30.112-7.806v28.916h44.459
		c5.567,0,9.716-0.9,12.446-2.703c2.729-1.8,4.096-4.554,4.096-8.264v-7.171c0-3.008-0.874-5.447-2.625-7.325
		C219.295,31.185,216.811,30.035,213.594,29.61z M105.843,13.378l7.853,14.824l-15.944-0.006L105.843,13.378z M175.5,11.657h29.671
		c2.257,0,3.815,0.308,4.68,0.922c0.864,0.617,1.296,1.647,1.296,3.087v5.272c0,1.479-0.432,2.516-1.296,3.112
		c-0.865,0.6-2.423,0.898-4.68,0.898H175.5V11.657z M211.532,43.41c0,1.875-0.437,3.188-1.309,3.932
		c-0.874,0.745-2.557,1.114-5.051,1.114H175.5v-14.29h29.671c2.495,0,4.178,0.362,5.051,1.09c0.872,0.725,1.309,2.026,1.309,3.904
		V43.41z"/>
	<rect x="248.792" y="2.515" class="st0" width="13.061" height="56.006"/>
	<polygon class="st0" points="303.483,47.996 303.483,2.515 290.422,2.515 290.422,58.521 345.506,58.521 345.506,47.996 	"/>
</g>
</svg>
