<?xml version="1.0" encoding="utf-8"?>
<!-- Generator: Adobe Illustrator 27.0.1, SVG Export Plug-In . SVG Version: 6.00 Build 0)  -->
<svg version="1.1" id="Layer_1" xmlns="http://www.w3.org/2000/svg" xmlns:xlink="http://www.w3.org/1999/xlink" x="0px" y="0px"
	 viewBox="0 0 348.415 61.035" style="enable-background:new 0 0 348.415 61.035;" xml:space="preserve">
<style type="text/css">
	.st0{fill:#163E6A;}
	.st1{fill:#19BEF0;}
</style>
<g>
	<g id="XMLID_13_">
		<path id="XMLID_24_" class="st0" d="M16.789,58.521c-5.438,0-9.114-0.926-11.018-2.78c-1.908-1.851-2.862-5.335-2.862-10.455
			v-11.62l13.139-2.495v16.825H41.63V2.515h13.061v42.771c0,5.121-0.965,8.604-2.893,10.455c-1.928,1.854-5.601,2.78-11.015,2.78
			H16.789z"/>
		<path id="XMLID_21_" class="st0" d="M68.361,58.521l31.657-56.006h12.549l32.082,56.006h-14.611l-9.834-18.272l-32.205,5.955
			l-1.78,3.22l-4.889,9.096H68.361z M93.401,36.164h24.512l-12.071-22.786L93.401,36.164z"/>
		<path id="XMLID_17_" class="st0" d="M162.67,58.521V2.515h47.949c4.428,0,7.632,0.869,9.615,2.603
			c1.986,1.733,2.975,4.494,2.975,8.28v6.804c0,2.68-0.828,4.819-2.482,6.422c-1.656,1.604-4.034,2.6-7.133,2.987
			c3.217,0.425,5.702,1.575,7.452,3.447c1.751,1.878,2.625,4.317,2.625,7.325v7.171c0,3.71-1.366,6.464-4.096,8.264
			c-2.73,1.803-6.879,2.703-12.446,2.703H162.67z M205.171,11.657H175.5v13.291h29.671c2.257,0,3.815-0.298,4.68-0.898
			c0.864-0.596,1.296-1.633,1.296-3.112v-5.272c0-1.44-0.432-2.471-1.296-3.087C208.986,11.964,207.428,11.657,205.171,11.657
			 M205.171,34.167H175.5v14.29h29.671c2.495,0,4.178-0.37,5.051-1.114c0.872-0.744,1.309-2.057,1.309-3.933v-4.249
			c0-1.878-0.437-3.179-1.309-3.904C209.349,34.53,207.666,34.167,205.171,34.167"/>
		<rect id="XMLID_16_" x="248.792" y="2.515" class="st0" width="13.061" height="56.006"/>
		<polygon id="XMLID_15_" class="st0" points="290.422,58.521 290.422,2.515 303.483,2.515 303.483,47.996 345.506,47.996 
			345.506,58.521 		"/>
		<polygon id="XMLID_14_" class="st1" points="97.742,28.193 86.219,49.424 167.994,28.224 		"/>
	</g>
</g>
</svg>
